<svg xmlns="http://www.w3.org/2000/svg" viewBox="0 0 552.22 423.96"><defs><style>.cls-1{fill:#ee231d;}.cls-2{fill:#03927f;}.cls-3{fill:#1fa447;}.cls-4{fill:#f57b35;}.cls-5{fill:#6ac93f;}.cls-6{fill:#c3d84d;}.cls-7{fill:#fdd838;}.cls-8{fill:#303130;}.cls-9{fill:#fc3433;}.cls-10{fill:#fca936;}</style></defs><title>EKATO</title><g id="Layer_2" data-name="Layer 2"><g id="Layer_1-2" data-name="Layer 1"><path class="cls-1" d="M117.63,260.23v23.26H34.51v15.13h81.17V322H34.51v16.79h84.62v23.81H0V260.23Z"/><path class="cls-1" d="M129.64,260.45h33.27v57.63l32.53-29.43H232.3l-37.9,33.26,42.53,40.38h-39.1l-34.92-33.81v33.81H129.64Z"/><path class="cls-1" d="M347.19,342.94v20.54H321.61q-10.32,0-12-10.41-3.52,4.37-12,8.09t-23.18,3.73h-1.84q-17.94,0-26.64-7t-8.69-17.74v-1q0-10.42,7.42-15.77t24.52-6.89l34.77-3.24c3.2-.37,4.81-1.69,4.81-3.94a4.55,4.55,0,0,0-.92-3c-.62-.75-2.48-1.47-5.59-2.18A64,64,0,0,0,289,303.11l-51.73.08V285.66h55A131.49,131.49,0,0,1,314,287.2q9,1.56,13.86,3.8a19.52,19.52,0,0,1,7.49,5.84,16.81,16.81,0,0,1,3.25,6.41,35.46,35.46,0,0,1,.56,6.89v29q0,3.8,4,3.8Zm-38.44-15.48-30.11,4.64q-6.36,1-8.9,2.47a4.92,4.92,0,0,0-2.55,4.57v.14a7.51,7.51,0,0,0,3.25,6.05q3.26,2.54,10.6,2.54,12.16,0,19.93-5.5t7.78-12.52Z"/><path class="cls-1" d="M389.53,362q-19.84,0-19.85-20.94V308.57H354V288.31h15.66V266.82h32.83v21.49h15.82v20.26H402.51v26.69a7.34,7.34,0,0,0,1.35,4.86q1.33,1.58,5.37,1.57h9.1V362Z"/><path class="cls-1" d="M484.32,363a106.14,106.14,0,0,1-23.8-2.4q-10.36-2.4-16.64-6.09a35.83,35.83,0,0,1-10.3-8.9,31.79,31.79,0,0,1-5.52-10.19A36.65,36.65,0,0,1,426.57,325v-2.47a35.82,35.82,0,0,1,1.49-10.4,31,31,0,0,1,5.45-10,34.84,34.84,0,0,1,10.22-8.69q6.27-3.63,16.64-5.89a112.25,112.25,0,0,1,23.8-2.26h10.59q57.47,0,57.46,37.23V325q0,38.06-57.46,38.06Zm27.46-25.46q6.72-5.61,6.71-13.42v-.68q0-7.94-6.71-13.28t-22.09-5.34h-.15q-15.66,0-22.3,5.27a16.34,16.34,0,0,0-6.64,13.35v.68q0,7.8,6.71,13.42t22.23,5.61Q505.06,343.19,511.78,337.58Z"/><path d="M41.55,403.28V407l-15,11.65h15.2v4.75H16.9v-3.7l14.62-11.73H17.14v-4.64Z"/><path d="M67.28,418.18a4.52,4.52,0,0,1-.21,1.35,4.17,4.17,0,0,1-.92,1.45,6.48,6.48,0,0,1-1.84,1.38,12,12,0,0,1-3.19,1,26.17,26.17,0,0,1-4.8.39H54.63a20.57,20.57,0,0,1-5.35-.61,8.73,8.73,0,0,1-3.5-1.7A7,7,0,0,1,44,419.05a6.67,6.67,0,0,1-.58-2.81v-.6a6.92,6.92,0,0,1,.54-2.75,6.64,6.64,0,0,1,1.73-2.33,8.55,8.55,0,0,1,3.45-1.69,20.87,20.87,0,0,1,5.36-.61h1.81q11.1,0,11.11,7.9v1H49.87q.66,2.86,5.65,2.86h0a13.23,13.23,0,0,0,2.21-.16,6.59,6.59,0,0,0,1.5-.4,3.47,3.47,0,0,0,.88-.52,2.78,2.78,0,0,0,.46-.46.75.75,0,0,0,.14-.34h6.54v0Zm-12-6.51c-3,0-4.78.82-5.32,2.48h10.7c-.48-1.66-2.26-2.48-5.35-2.48Z"/><path d="M88.79,408.12v3.47s-8.83,0-9.59.08a4.56,4.56,0,0,0-2.48,1.45,3.91,3.91,0,0,0-.87,2.58v7.75H69.6v-15h6.19v2.65a8.45,8.45,0,0,1,1-1.17,6.79,6.79,0,0,1,2-1.2,7.72,7.72,0,0,1,3.12-.61Z"/><path d="M101,423.66a21.13,21.13,0,0,1-4.74-.47A12,12,0,0,1,93,422a7.23,7.23,0,0,1-2-1.77,6.47,6.47,0,0,1-1.1-2,7.23,7.23,0,0,1-.29-2.09v-.49a7.09,7.09,0,0,1,.29-2.07,6.16,6.16,0,0,1,1.09-2,6.92,6.92,0,0,1,2-1.73,11.71,11.71,0,0,1,3.31-1.17,22.45,22.45,0,0,1,4.74-.45h2.11q11.43,0,11.43,7.41v.49q0,7.57-11.43,7.57Zm5.46-5.06a3.4,3.4,0,0,0,1.34-2.67v-.14a3.26,3.26,0,0,0-1.34-2.64,7.09,7.09,0,0,0-4.39-1.06h0q-3.12,0-4.44,1.05a3.24,3.24,0,0,0-1.32,2.65v.14a3.39,3.39,0,0,0,1.33,2.67,7,7,0,0,0,4.43,1.11A6.93,6.93,0,0,0,106.46,418.6Z"/><path d="M139.39,408.09h-9.53v-4.81H156v4.81h-9.56v15.52h-7Z"/><path d="M164.77,423.66a21.13,21.13,0,0,1-4.74-.47,12,12,0,0,1-3.31-1.21,7.23,7.23,0,0,1-2.05-1.77,6.47,6.47,0,0,1-1.1-2,7.23,7.23,0,0,1-.3-2.09v-.49a7.1,7.1,0,0,1,.3-2.07,6.16,6.16,0,0,1,1.09-2,6.92,6.92,0,0,1,2-1.73,11.71,11.71,0,0,1,3.31-1.17,22.45,22.45,0,0,1,4.74-.45h2.11q11.43,0,11.43,7.41v.49q0,7.57-11.43,7.57Zm5.46-5.06a3.4,3.4,0,0,0,1.34-2.67v-.14a3.26,3.26,0,0,0-1.34-2.64,7.09,7.09,0,0,0-4.39-1.06h0q-3.12,0-4.44,1.05a3.24,3.24,0,0,0-1.32,2.65v.14a3.39,3.39,0,0,0,1.33,2.67,9.38,9.38,0,0,0,8.85,0Z"/><path d="M194.15,411v-3.82c3.26-.18,5.46-1.49,6.61-3.91h5.42V423.6H199.3V411Z"/><path d="M238.45,413.62a10.14,10.14,0,0,1-.26,2.35,7.88,7.88,0,0,1-1.17,2.55,8.7,8.7,0,0,1-2.41,2.43,13.33,13.33,0,0,1-4.21,1.74,25.47,25.47,0,0,1-6.34.71H222.8a25.3,25.3,0,0,1-6.32-.71,14,14,0,0,1-4.2-1.72,8.66,8.66,0,0,1-2.4-2.43,8.49,8.49,0,0,1-1.19-2.57,10.14,10.14,0,0,1-.27-2.35v-.79a10.2,10.2,0,0,1,.27-2.35,8.26,8.26,0,0,1,1.19-2.54,8.54,8.54,0,0,1,2.4-2.39,14,14,0,0,1,4.2-1.7,25.84,25.84,0,0,1,6.32-.69h1.26a26,26,0,0,1,6.34.69,13.87,13.87,0,0,1,4.21,1.7,8.57,8.57,0,0,1,2.41,2.39,7.93,7.93,0,0,1,1.17,2.54,10.2,10.2,0,0,1,.26,2.35Zm-7.35-2.35a5.18,5.18,0,0,0-1.19-1.62,5.8,5.8,0,0,0-2.49-1.26,14.56,14.56,0,0,0-4-.47,16.17,16.17,0,0,0-3.38.32,8.45,8.45,0,0,0-2.32.83,4.85,4.85,0,0,0-1.4,1.2,3.75,3.75,0,0,0-.73,1.35,4.93,4.93,0,0,0-.19,1.4v.31a4.57,4.57,0,0,0,.36,1.78,5.21,5.21,0,0,0,1.19,1.68,5.94,5.94,0,0,0,2.49,1.33,14.08,14.08,0,0,0,4,.5,14.5,14.5,0,0,0,4-.49,5.92,5.92,0,0,0,2.49-1.3,5.26,5.26,0,0,0,1.19-1.66,4.51,4.51,0,0,0,.36-1.79V413A4.32,4.32,0,0,0,231.1,411.27Z"/><path d="M270.21,413.62A10.71,10.71,0,0,1,270,416a7.93,7.93,0,0,1-1.18,2.55,8.66,8.66,0,0,1-2.4,2.43,13.39,13.39,0,0,1-4.22,1.74,25.33,25.33,0,0,1-6.33.71h-1.26a25.19,25.19,0,0,1-6.32-.71A13.77,13.77,0,0,1,244,421a9,9,0,0,1-3.6-5,10.14,10.14,0,0,1-.27-2.35v-.79a10.2,10.2,0,0,1,.27-2.35,8.26,8.26,0,0,1,1.19-2.54,8.44,8.44,0,0,1,2.41-2.39,13.8,13.8,0,0,1,4.2-1.7,25.72,25.72,0,0,1,6.32-.69h1.26a25.87,25.87,0,0,1,6.33.69,13.94,13.94,0,0,1,4.22,1.7,8.54,8.54,0,0,1,2.4,2.39,8,8,0,0,1,1.18,2.54,10.78,10.78,0,0,1,.26,2.35Zm-7.36-2.35a5,5,0,0,0-1.18-1.62,5.9,5.9,0,0,0-2.5-1.26,14.48,14.48,0,0,0-4-.47,16.1,16.1,0,0,0-3.38.32,8.53,8.53,0,0,0-2.33.83,4.85,4.85,0,0,0-1.4,1.2,3.92,3.92,0,0,0-.73,1.35,4.93,4.93,0,0,0-.19,1.4v.31a4.57,4.57,0,0,0,.36,1.78,5.37,5.37,0,0,0,1.19,1.68,6,6,0,0,0,2.49,1.33,14.1,14.1,0,0,0,4,.5,14.42,14.42,0,0,0,4-.49,6,6,0,0,0,2.5-1.3,5.21,5.21,0,0,0,1.18-1.66,4.51,4.51,0,0,0,.36-1.79V413A4.32,4.32,0,0,0,262.85,411.27Z"/><path d="M294.19,423.58h-6.93V403.3h6.93Z"/><path d="M303.24,408.79v2.51a11.26,11.26,0,0,1,7.93-2.83h.21c2.59,0,4.54.55,5.83,1.67a5.17,5.17,0,0,1,2,4.05v9.26h-6.68V416.2a3.42,3.42,0,0,0-1.07-2.69,4.68,4.68,0,0,0-3.21-1,5.53,5.53,0,0,0-3.57,1.09,3.54,3.54,0,0,0-1.33,2.89v6.92h-6.62V408.79Z"/><path d="M352.19,402.92a34.81,34.81,0,0,1,5.24.37,20.72,20.72,0,0,1,3.95,1,11.61,11.61,0,0,1,2.78,1.48,8.56,8.56,0,0,1,1.86,1.75,8,8,0,0,1,1.09,1.91,8.16,8.16,0,0,1,.54,1.86,11.81,11.81,0,0,1,.12,1.72v.82a11.59,11.59,0,0,1-.12,1.69,8.37,8.37,0,0,1-.54,1.87,7.93,7.93,0,0,1-2.93,3.72,12.33,12.33,0,0,1-2.79,1.5,19.31,19.31,0,0,1-3.95,1,32.43,32.43,0,0,1-5.25.38h-.95a32.87,32.87,0,0,1-5.27-.38,19.25,19.25,0,0,1-4-1,12.33,12.33,0,0,1-2.79-1.5,8.7,8.7,0,0,1-1.87-1.78,7.66,7.66,0,0,1-1.08-1.94,9.4,9.4,0,0,1-.52-1.87,11.59,11.59,0,0,1-.12-1.69V413a11.67,11.67,0,0,1,.12-1.71,9.7,9.7,0,0,1,.52-1.86,7.54,7.54,0,0,1,1.08-1.92,8.8,8.8,0,0,1,1.86-1.75,11.61,11.61,0,0,1,2.78-1.48,20.7,20.7,0,0,1,4-1,35.42,35.42,0,0,1,5.27-.37Zm8.31,10.25a4.94,4.94,0,0,0-.21-1.45,4.34,4.34,0,0,0-.81-1.42,5,5,0,0,0-1.55-1.26,9.75,9.75,0,0,0-2.59-.86,18.86,18.86,0,0,0-3-.33c-.25,0-.77,0-.94,0q-8.44.15-8.45,5.32v.33a4.72,4.72,0,0,0,.38,1.86,5.59,5.59,0,0,0,1.26,1.75,6.45,6.45,0,0,0,2.77,1.39,16.5,16.5,0,0,0,4.15.51h.71a16.33,16.33,0,0,0,3.87-.5,6.54,6.54,0,0,0,2.79-1.36,5.48,5.48,0,0,0,1.3-1.74,4.82,4.82,0,0,0,.37-1.86Z"/><path d="M376,408.79v2.51a11.26,11.26,0,0,1,7.93-2.83h.2c2.6,0,4.54.55,5.84,1.67a5.17,5.17,0,0,1,1.95,4.05v9.26h-6.69V416.2a3.38,3.38,0,0,0-1.07-2.69,4.65,4.65,0,0,0-3.2-1,5.51,5.51,0,0,0-3.57,1.09,3.54,3.54,0,0,0-1.33,2.89v6.92h-6.63V408.79Z"/><path d="M417.82,419.53a4.17,4.17,0,0,1-.92,1.45,6.39,6.39,0,0,1-1.85,1.38,11.87,11.87,0,0,1-3.19,1,26,26,0,0,1-4.79.39h-1.7a20.43,20.43,0,0,1-5.34-.61,8.72,8.72,0,0,1-3.51-1.7,7,7,0,0,1-1.82-2.37,6.67,6.67,0,0,1-.58-2.81v-.6a6.91,6.91,0,0,1,.53-2.75,6.8,6.8,0,0,1,1.74-2.33,8.57,8.57,0,0,1,3.44-1.69,21,21,0,0,1,5.36-.61H407q11.1,0,11.1,7.9v1H400.62q.66,2.86,5.64,2.86h0a13.23,13.23,0,0,0,2.21-.16,6.31,6.31,0,0,0,1.5-.4,3.47,3.47,0,0,0,.88-.52,2.42,2.42,0,0,0,.46-.46.91.91,0,0,0,.15-.34H418v0A4.85,4.85,0,0,1,417.82,419.53Zm-11.77-7.86c-3,0-4.78.82-5.31,2.48h10.69c-.47-1.66-2.26-2.48-5.35-2.48Z"/><path d="M449.46,423.94a28,28,0,0,1-4.87-.39,17.39,17.39,0,0,1-3.72-1,11.64,11.64,0,0,1-2.67-1.5,8.63,8.63,0,0,1-1.82-1.8,9.47,9.47,0,0,1-1.09-1.94,8.28,8.28,0,0,1-.57-1.89,10.83,10.83,0,0,1-.14-1.7v-.79a11.2,11.2,0,0,1,.27-2.5,8.56,8.56,0,0,1,1.21-2.62,8.9,8.9,0,0,1,2.47-2.5,13.7,13.7,0,0,1,4.34-1.75,27.37,27.37,0,0,1,6.59-.71h1.22a30.5,30.5,0,0,1,6.48.61A15.52,15.52,0,0,1,461.5,405,9,9,0,0,1,464,407a6.22,6.22,0,0,1,1.26,2.08,5.92,5.92,0,0,1,.28,1.76v.3h-7.38a2.49,2.49,0,0,0-.22-.58,4.19,4.19,0,0,0-.69-.84,4.64,4.64,0,0,0-1.34-1,10.64,10.64,0,0,0-2.33-.7,17.73,17.73,0,0,0-3.54-.31,15.94,15.94,0,0,0-4.07.45,5.91,5.91,0,0,0-2.54,1.25,4.73,4.73,0,0,0-1.21,1.67,5,5,0,0,0-.36,1.91v.33a4.84,4.84,0,0,0,.4,1.91,6.12,6.12,0,0,0,1.27,1.78,6.27,6.27,0,0,0,2.57,1.38,13.67,13.67,0,0,0,4,.52q6.84,0,8.06-3.53a.27.27,0,0,0,0-.08h7.38v.3a5.94,5.94,0,0,1-.31,1.86,7.14,7.14,0,0,1-1.3,2.15,9.5,9.5,0,0,1-2.54,2.09,15.44,15.44,0,0,1-4.35,1.54,29.2,29.2,0,0,1-6.4.63Z"/><path d="M473.83,423.52h-6.62V403.25h6.62Z"/><path d="M482.69,407.45h-6.62v-4.2h6.62Zm0,16.07h-6.62V408.86h6.62Z"/><path d="M491.42,423.22A10.73,10.73,0,0,1,488.2,422a7.16,7.16,0,0,1-2-1.78,6.09,6.09,0,0,1-1-2,7.61,7.61,0,0,1-.27-2v-.55a7.59,7.59,0,0,1,.27-2,6.1,6.1,0,0,1,1-2,6.87,6.87,0,0,1,2-1.73,11.37,11.37,0,0,1,3.23-1.19,21.33,21.33,0,0,1,4.63-.46h1.69a22.3,22.3,0,0,1,5,.49A11.16,11.16,0,0,1,506,409.9a6.44,6.44,0,0,1,1.86,1.63,5.26,5.26,0,0,1,.91,1.66,5.92,5.92,0,0,1,.19,1.43v.08h-6.8q-.69-2.64-5.29-2.64h-.09a5.94,5.94,0,0,0-3.87,1,3.25,3.25,0,0,0-1.21,2.61v.19a3.68,3.68,0,0,0,1.22,2.79,5.56,5.56,0,0,0,3.86,1.13h.09q4.58,0,5.29-2.7H509v.06a6.12,6.12,0,0,1-.18,1.48,5.17,5.17,0,0,1-.86,1.69,6,6,0,0,1-1.83,1.66,11.74,11.74,0,0,1-3.31,1.2,22.39,22.39,0,0,1-5.08.5h-1.63A21,21,0,0,1,491.42,423.22Z"/><path d="M511.2,403.25h6.62v11.47l6.47-5.86h7.34l-7.55,6.62,8.47,8h-7.78l-6.95-6.73v6.73H511.2Z"/><path class="cls-2" d="M348.58,194.49a86.7,86.7,0,0,0,10.72-39.76h68.45c-.16,26.32-7,50.71-19.74,74Z"/><path class="cls-3" d="M348.64,112c5.63-3.11,10.93-6.09,16.2-9.13,6-3.44,11.9-7,17.85-10.53,7.54-4.44,15.12-8.81,22.71-13.18,1.45-.84,2.41-.74,3.52,1,5.31,8.34,8.69,17.5,11.74,26.8a151.83,151.83,0,0,1,7,37.62c.15,2.29,0,4.61,0,7.08h-68.3A87.35,87.35,0,0,0,348.64,112Z"/><path class="cls-4" d="M200.05,112a106.81,106.81,0,0,0-6.71,15.83A78,78,0,0,0,189.62,149c-.06,1.84-.32,2.89-2.6,2.88-21.38-.07-42.76,0-64.14,0-.5,0-1-.1-1.91-.19.46-26.31,6.83-50.8,19.9-73.8Z"/><path class="cls-5" d="M347.3,109.54c-7.59-11.88-16.89-21.8-29.28-29l34.3-59.37c22.5,13.8,40.59,31.49,54.19,54.3Z"/><path class="cls-6" d="M349.31,20a125,125,0,0,1-6.11,11.22q-13,22.31-25.79,44.7c-1.21,2.11-2.13,2.85-4.66,1.58a82,82,0,0,0-32.16-8.86c-4.77-.3-4.79-.4-4.79-5.1,0-20.19.05-40.39,0-60.59,0-2.15.43-3,2.79-2.91a157.68,157.68,0,0,1,55.71,12.23C339.41,14.43,344.54,16.65,349.31,20Z"/><path class="cls-7" d="M272.85,34.47c0,10.15-.11,20.31.08,30.45.05,2.76-.9,3.25-3.39,3.43A86.87,86.87,0,0,0,237,76.94c-3.76,1.85-3.86,2.18-6-1.69-8.48-15.08-17.21-30-25.68-45.09q-2.17-3.86-4.54-7.55c-1.17-1.85-.82-3.21,1-4.15C215.84,11.34,230.27,5.38,246,2.85A182.51,182.51,0,0,1,269,.27c2.9-.1,4.07.48,4,3.75C272.71,14.17,272.86,24.32,272.85,34.47Z"/><path class="cls-8" d="M325.2,102.37c0,1.47-1.07,2.13-1.76,2.95q-17,20.09-34.13,40.11a4.76,4.76,0,0,0-1.2,4.78,13.9,13.9,0,0,1-7,15.58,14.3,14.3,0,0,1-19.41-19.54,14.08,14.08,0,0,1,15.66-6.94,4.33,4.33,0,0,0,4.48-1.05q20-17.11,40.16-34.07C322.88,103.46,323.57,102.22,325.2,102.37Zm-43.36,50.95a7.65,7.65,0,0,0-7.57-7.77,7.77,7.77,0,0,0-7.76,7.6,7.61,7.61,0,0,0,7.6,7.72A7.53,7.53,0,0,0,281.84,153.32Z"/><path class="cls-9" d="M189.77,162.7c-.52-2.67.87-5.65-1.33-8a7.43,7.43,0,0,0-1.51-.33q-32.13,0-64.27,0c-.76,0-1.75-.41-2.18.71-.38,5.48,1.25,10.77,1.56,16.19.13,2.33.22,4.81,1.44,7l-.15,0-.08.14c.22,2.16.09,4.39,1.48,6.27l-.18-.08-.1.17c.22,1.87.18,3.8,1.47,5.38l-.15,0a9,9,0,0,0,1.5,5.38c-.42.87,0,1.65.29,2.43a146,146,0,0,0,10.53,25.75c.92,1.72,1.53,3.66,3,5l59-34.2C194.42,184.33,191.51,173.7,189.77,162.7Z"/><path class="cls-10" d="M222.12,66.05a1.09,1.09,0,0,1-.27-.11,1.09,1.09,0,0,0,.27.11l-.56-.78,0,0c-.07-1.54-1.09-2.55-2-3.65a5.31,5.31,0,0,0-.47.84,5.31,5.31,0,0,1,.47-.84l-.69-1.27a3.73,3.73,0,0,0-1.84-2.86l-.74-1.53-.54-.77,0,0a1.46,1.46,0,0,0-.71-1.33l-13.85-24a1,1,0,0,1-.18,0,1,1,0,0,0,.18,0l-.67-.69h0l0,0h0a1.54,1.54,0,0,0-.68-1.39,3,3,0,0,0-.09.69,3,3,0,0,1,.09-.69.22.22,0,0,0-.08-.32,1.21,1.21,0,0,1-.39-.22,1.21,1.21,0,0,0,.39.22,1.29,1.29,0,0,0-.71-1.33,1.59,1.59,0,0,0,.07.73,1.59,1.59,0,0,1-.07-.73,1.48,1.48,0,0,0-1-1.37c-1.47-3.64-1.95-3.79-4.54-1.35a.23.23,0,0,0-.33.07,6.5,6.5,0,0,0-3.19,2v0a1.38,1.38,0,0,0-1.38,1.13l.19.07-.2-.06a2.7,2.7,0,0,0-2.57,1.78l-.06.08A1.13,1.13,0,0,0,185,29h0a1.13,1.13,0,0,0-1.17.78h0c-1.89.5-3.15,1.85-4.39,3.24A2.15,2.15,0,0,0,178,34.22l-1.09.78a5.65,5.65,0,0,0-2.65,2.39h0a3.52,3.52,0,0,0-2.6,2.46h0a1.16,1.16,0,0,0-1.15.81.28.28,0,0,0-.18.3A1.53,1.53,0,0,0,169,42.31v.07l-.6.55-.1.07-.54.55-.08,0a1.08,1.08,0,0,0-1,.85,1.08,1.08,0,0,0-.85,1l-.05.05-.54.56-.06,0a1.21,1.21,0,0,0-1.08.86l-.58.6a2.49,2.49,0,0,0-1.57,1.79.3.3,0,0,0-.3.19c-.6.16-.79.64-.92,1.16a125,125,0,0,0-18.25,24.65L199,108.31c1.4,1.14,2.35,0,3.39-.68l.15-.06a3.65,3.65,0,0,0,1.78-2.59v0a1.14,1.14,0,0,0,.71-1.18v0l.54-.69v0a1.28,1.28,0,0,0,1.15-1.4h0l.58-.68h0c2.31-.84,3-3.06,4.11-4.9,5.46-6.22,12-11.18,19.17-15.72Zm-3.13-3a1.06,1.06,0,0,0,.08.48A1.06,1.06,0,0,1,219,63.08Z"/></g></g></svg>